<svg version="1.1" id="Layer_1" xmlns="http://www.w3.org/2000/svg" xmlns:xlink="http://www.w3.org/1999/xlink" x="0px" y="0px"
	 width="100%" viewBox="0 0 225 225" enable-background="new 0 0 225 225" xml:space="preserve">
<path fill="#4D6590" opacity="1.000000" stroke="none" 
	d="
M4.000000,226.000000 
	C2.999998,225.666672 1.999998,225.333344 1.247117,224.164749 
	C1.654842,220.852188 1.954831,218.374908 1.955750,215.897552 
	C1.981307,147.021042 1.979482,78.144524 1.967317,9.268013 
	C1.966760,6.116321 1.581110,2.874361 5.000000,1.000000 
	C78.666664,1.000000 152.333328,1.000000 226.000000,1.000000 
	C226.000000,74.666664 226.012299,148.333344 225.896469,221.999832 
	C225.894470,223.253143 227.962967,226.314819 223.172211,225.744049 
	C220.532043,225.327744 218.719681,225.027771 216.907242,225.027145 
	C148.033585,225.003311 79.159920,224.998276 10.286299,225.048721 
	C8.190635,225.050262 6.095424,225.669022 4.000000,226.000000 
M48.635868,116.992668 
	C49.093063,117.321220 49.550259,117.649773 50.201900,118.389511 
	C50.822987,118.535011 51.444073,118.680511 52.755623,118.645088 
	C55.925724,118.125748 58.639847,116.309212 57.667313,113.142303 
	C57.029163,111.064278 53.974384,109.728378 51.868469,107.394096 
	C51.173229,106.571709 50.477985,105.749321 49.940125,104.204948 
	C50.237213,103.432381 50.582287,102.674438 50.822849,101.884651 
	C51.729523,98.907967 53.004929,95.480400 56.561520,96.294617 
	C58.696171,96.783302 60.965607,99.499847 61.934875,101.749260 
	C65.212944,109.356789 68.080994,117.152779 70.809891,124.979889 
	C72.067329,128.586502 73.884094,129.638550 77.660835,127.919388 
	C73.843079,117.777779 70.113419,107.872284 66.385437,97.966148 
	C64.693733,93.470879 61.584198,90.890930 56.656925,90.824707 
	C51.506374,90.755478 48.259693,93.392426 46.493877,98.081917 
	C43.279789,106.617577 40.064724,115.152870 36.855633,123.690399 
	C36.313007,125.134033 35.798275,126.588142 35.262287,128.060410 
	C39.378128,129.532944 41.198402,128.288849 42.139477,124.849533 
	C42.787086,122.482727 44.024532,120.277313 45.655930,117.902985 
	C46.459187,117.554077 47.262447,117.205170 48.635868,116.992668 
M107.673546,127.410538 
	C107.453247,121.453949 107.895615,115.378525 106.853813,109.569267 
	C105.374756,101.321732 96.635017,96.579720 88.507401,98.746437 
	C80.404167,100.906647 75.553345,108.813866 77.491295,116.703529 
	C79.590225,125.248550 87.777557,130.281937 96.086243,128.087891 
	C97.788750,127.638329 99.440224,126.995483 101.730530,126.238289 
	C101.962181,129.770493 102.160759,132.798447 102.381393,136.162766 
	C104.277420,136.011581 105.825851,135.888123 107.673523,135.740799 
	C107.673523,132.986435 107.673523,130.680588 107.673546,127.410538 
M141.781265,120.430244 
	C141.511581,116.626892 141.772888,112.691078 140.863922,109.047203 
	C138.844742,100.952927 130.107727,96.480881 121.989685,98.897507 
	C113.981361,101.281456 109.568733,109.266617 111.799393,117.337914 
	C114.506996,127.134895 123.833435,130.888901 133.503098,126.946678 
	C136.650208,127.743881 138.917038,128.318100 141.781250,129.043640 
	C141.781250,125.661232 141.781250,123.514809 141.781265,120.430244 
M169.841125,126.878426 
	C175.368271,129.732468 180.729752,128.873184 184.739624,126.581238 
	C187.595795,127.625488 189.480530,128.314575 192.029587,129.246536 
	C192.029587,123.705284 192.045532,119.401573 192.026291,115.098015 
	C191.985641,106.005409 187.480606,100.022255 179.490067,98.416115 
	C172.904480,97.092384 165.889206,100.735771 163.067535,106.945129 
	C159.821503,114.088326 162.047058,121.207863 169.841125,126.878426 
M150.840591,115.710571 
	C150.479614,109.727028 152.476227,105.497955 158.761505,103.665077 
	C159.929047,103.324600 160.383026,100.537201 161.472168,98.231697 
	C151.515030,99.184158 145.938431,104.341324 145.258957,112.437988 
	C144.885574,116.887459 144.976639,121.403030 145.273453,125.861153 
	C145.341461,126.882515 147.118759,127.790077 148.109390,128.750015 
	C149.017090,127.703506 150.562042,126.738312 150.707993,125.594597 
	C151.082993,122.655647 150.837509,119.637512 150.840591,115.710571 
z"/>
<path fill="#8A97B2" opacity="1.000000" stroke="none" 
	d="
M4.500000,1.000000 
	C1.581110,2.874361 1.966760,6.116321 1.967317,9.268013 
	C1.979482,78.144524 1.981307,147.021042 1.955750,215.897552 
	C1.954831,218.374908 1.654842,220.852188 1.247118,223.664749 
	C1.000000,149.666672 1.000000,75.333336 1.003317,1.000000 
	C2.004422,1.000000 3.002211,1.000000 4.500000,1.000000 
z"/>
<path fill="#7082A3" opacity="1.000000" stroke="none" 
	d="
M4.468657,226.000000 
	C6.095424,225.669022 8.190635,225.050262 10.286299,225.048721 
	C79.159920,224.998276 148.033585,225.003311 216.907242,225.027145 
	C218.719681,225.027771 220.532043,225.327744 222.672211,225.744049 
	C150.312439,226.000000 77.624878,226.000000 4.468657,226.000000 
z"/>
<path fill="#EDEFF1" opacity="1.000000" stroke="none" 
	d="
M107.673538,127.892632 
	C107.673523,130.680588 107.673523,132.986435 107.673523,135.740799 
	C105.825851,135.888123 104.277420,136.011581 102.381393,136.162766 
	C102.160759,132.798447 101.962181,129.770493 101.730530,126.238289 
	C99.440224,126.995483 97.788750,127.638329 96.086243,128.087891 
	C87.777557,130.281937 79.590225,125.248550 77.491295,116.703529 
	C75.553345,108.813866 80.404167,100.906647 88.507401,98.746437 
	C96.635017,96.579720 105.374756,101.321732 106.853813,109.569267 
	C107.895615,115.378525 107.453247,121.453949 107.673538,127.892632 
M85.672722,106.106468 
	C84.910973,107.180946 83.861542,108.153740 83.439339,109.348244 
	C81.943718,113.579720 82.334244,117.583389 85.895859,120.707397 
	C89.240997,123.641518 93.124725,123.966484 96.998665,121.983498 
	C101.226784,119.819191 102.580887,115.979355 101.902267,111.498978 
	C100.968300,105.332695 93.290062,100.991409 85.672722,106.106468 
z"/>
<path fill="#EEF0F2" opacity="1.000000" stroke="none" 
	d="
M141.781250,120.899307 
	C141.781250,123.514809 141.781250,125.661232 141.781250,129.043640 
	C138.917038,128.318100 136.650208,127.743881 133.503098,126.946678 
	C123.833435,130.888901 114.506996,127.134895 111.799393,117.337914 
	C109.568733,109.266617 113.981361,101.281456 121.989685,98.897507 
	C130.107727,96.480881 138.844742,100.952927 140.863922,109.047203 
	C141.772888,112.691078 141.511581,116.626892 141.781250,120.899307 
M121.818962,122.046158 
	C127.620255,123.953888 131.556625,123.171288 134.266418,119.213120 
	C136.849457,115.440125 136.951340,111.444946 134.255737,107.631905 
	C131.765503,104.109367 127.952454,102.660873 124.203186,104.130882 
	C121.451683,105.209694 118.441200,107.736046 117.315201,110.372757 
	C115.495903,114.632942 117.044052,118.839638 121.818962,122.046158 
z"/>
<path fill="#F1F3F4" opacity="1.000000" stroke="none" 
	d="
M169.512512,126.694824 
	C162.047058,121.207863 159.821503,114.088326 163.067535,106.945129 
	C165.889206,100.735771 172.904480,97.092384 179.490067,98.416115 
	C187.480606,100.022255 191.985641,106.005409 192.026291,115.098015 
	C192.045532,119.401573 192.029587,123.705284 192.029587,129.246536 
	C189.480530,128.314575 187.595795,127.625488 184.739624,126.581238 
	C180.729752,128.873184 175.368271,129.732468 169.512512,126.694824 
M169.505402,119.913483 
	C173.139206,123.501762 177.341858,124.369362 181.790039,121.842293 
	C185.610016,119.672112 187.306824,116.092072 186.519592,111.692581 
	C185.816040,107.760544 183.437485,104.992813 179.521912,104.047318 
	C175.552109,103.088722 171.791016,103.782753 169.179504,107.253227 
	C166.243210,111.155319 166.280716,115.252449 169.505402,119.913483 
z"/>
<path fill="#F0F1F3" opacity="1.000000" stroke="none" 
	d="
M44.998356,117.999771 
	C44.024532,120.277313 42.787086,122.482727 42.139477,124.849533 
	C41.198402,128.288849 39.378128,129.532944 35.262287,128.060410 
	C35.798275,126.588142 36.313007,125.134033 36.855633,123.690399 
	C40.064724,115.152870 43.279789,106.617577 46.493877,98.081917 
	C48.259693,93.392426 51.506374,90.755478 56.656925,90.824707 
	C61.584198,90.890930 64.693733,93.470879 66.385437,97.966148 
	C70.113419,107.872284 73.843079,117.777779 77.660835,127.919388 
	C73.884094,129.638550 72.067329,128.586502 70.809891,124.979889 
	C68.080994,117.152779 65.212944,109.356789 61.934875,101.749260 
	C60.965607,99.499847 58.696171,96.783302 56.561520,96.294617 
	C53.004929,95.480400 51.729523,98.907967 50.822849,101.884651 
	C50.582287,102.674438 50.237213,103.432381 49.587013,104.770836 
	C46.008263,108.951065 44.059265,112.992409 44.998356,117.999771 
z"/>
<path fill="#E9EBEE" opacity="1.000000" stroke="none" 
	d="
M150.840302,116.180801 
	C150.837509,119.637512 151.082993,122.655647 150.707993,125.594597 
	C150.562042,126.738312 149.017090,127.703506 148.109390,128.750015 
	C147.118759,127.790077 145.341461,126.882515 145.273453,125.861153 
	C144.976639,121.403030 144.885574,116.887459 145.258957,112.437988 
	C145.938431,104.341324 151.515030,99.184158 161.472168,98.231697 
	C160.383026,100.537201 159.929047,103.324600 158.761505,103.665077 
	C152.476227,105.497955 150.479614,109.727028 150.840302,116.180801 
z"/>
<path fill="#F0F1F3" opacity="1.000000" stroke="none" 
	d="
M50.007454,117.978317 
	C49.550259,117.649773 49.093063,117.321220 48.343208,116.520233 
	C47.241489,112.333473 48.427570,109.606094 52.001888,108.060120 
	C53.974384,109.728378 57.029163,111.064278 57.667313,113.142303 
	C58.639847,116.309212 55.925724,118.125748 52.188469,118.558731 
	C51.083359,118.307686 50.545406,118.143005 50.007454,117.978317 
z"/>
<path fill="#4A638F" opacity="1.000000" stroke="none" 
	d="
M51.935181,107.727112 
	C48.427570,109.606094 47.241489,112.333473 48.058128,116.452042 
	C47.262447,117.205170 46.459187,117.554077 45.327141,117.951378 
	C44.059265,112.992409 46.008263,108.951065 49.508324,105.131828 
	C50.477985,105.749321 51.173229,106.571709 51.935181,107.727112 
z"/>
<path fill="#4A638F" opacity="1.000000" stroke="none" 
	d="
M50.104675,118.183914 
	C50.545406,118.143005 51.083359,118.307686 51.843235,118.649185 
	C51.444073,118.680511 50.822987,118.535011 50.104675,118.183914 
z"/>
<path fill="#4E6590" opacity="1.000000" stroke="none" 
	d="
M85.989014,105.857941 
	C93.290062,100.991409 100.968300,105.332695 101.902267,111.498978 
	C102.580887,115.979355 101.226784,119.819191 96.998665,121.983498 
	C93.124725,123.966484 89.240997,123.641518 85.895859,120.707397 
	C82.334244,117.583389 81.943718,113.579720 83.439339,109.348244 
	C83.861542,108.153740 84.910973,107.180946 85.989014,105.857941 
z"/>
<path fill="#4E6590" opacity="1.000000" stroke="none" 
	d="
M121.465439,121.862167 
	C117.044052,118.839638 115.495903,114.632942 117.315201,110.372757 
	C118.441200,107.736046 121.451683,105.209694 124.203186,104.130882 
	C127.952454,102.660873 131.765503,104.109367 134.255737,107.631905 
	C136.951340,111.444946 136.849457,115.440125 134.266418,119.213120 
	C131.556625,123.171288 127.620255,123.953888 121.465439,121.862167 
z"/>
<path fill="#4F6691" opacity="1.000000" stroke="none" 
	d="
M169.263489,119.610519 
	C166.280716,115.252449 166.243210,111.155319 169.179504,107.253227 
	C171.791016,103.782753 175.552109,103.088722 179.521912,104.047318 
	C183.437485,104.992813 185.816040,107.760544 186.519592,111.692581 
	C187.306824,116.092072 185.610016,119.672112 181.790039,121.842293 
	C177.341858,124.369362 173.139206,123.501762 169.263489,119.610519 
z"/>
</svg>